<svg id="Layer_1" data-name="Layer 1" xmlns="http://www.w3.org/2000/svg" viewBox="0 0 925.54 527"><defs><style>.cls-1,.cls-6{fill:#fff;}.cls-1,.cls-10,.cls-2,.cls-3,.cls-4,.cls-7,.cls-8{stroke:#000;}.cls-1,.cls-10,.cls-2,.cls-3,.cls-4,.cls-7,.cls-8,.cls-9{stroke-miterlimit:10;}.cls-2,.cls-5,.cls-9{fill:none;}.cls-3{fill:#8b001b;}.cls-4{fill:#8c6239;}.cls-8{fill:#512e12;}.cls-9{stroke:#b91400;}.cls-10,.cls-9{stroke-width:2px;}.cls-11{font-size:57px;fill:#730006;font-family:MVBoli, MV Boli;}.cls-12{font-size:32px;}</style></defs><title>Logo_v1</title><text x="-51" y="-20"/><path class="cls-1" d="M743.5,160.5" transform="translate(-51 -20)"/><path class="cls-2" d="M627.5,128.5" transform="translate(-51 -20)"/><path class="cls-3" d="M17.5,263.5" transform="translate(-51 -20)"/><circle class="cls-4" cx="98" cy="49" r="48.5"/><circle class="cls-4" cx="409.5" cy="48.5" r="45"/><circle class="cls-4" cx="253.5" cy="273.5" r="253"/><path class="cls-5" d="M149,313" transform="translate(-51 -20)"/><path class="cls-6" d="M349,321.57c14.32,18.23,29.2,36.66,48.81,49.06s45.08,17.9,66.28,8.5c12.21-5.42,22-15.22,30.11-25.79,30.63-39.69,41.72-93.73,29.19-142.25l-.39-.79Q434.71,262,349.6,318.88" transform="translate(-51 -20)"/><path d="M347.94,322.63c14.33,18.22,29.26,36.78,49.11,49.3,17.85,11.25,40.75,17.22,61.42,10.89C479,376.54,493.69,358.54,504.6,341a169.14,169.14,0,0,0,23.12-62.12,171,171,0,0,0,2-36.23,167.48,167.48,0,0,0-1.93-17.86c-.8-4.86-1.32-10.74-3.49-15.22a1.52,1.52,0,0,0-2-.54Q434,260.74,348.84,317.59c-1.6,1.07-.1,3.67,1.51,2.59q85.09-56.82,173.41-108.59l-2-.53c1.81,3.73,2.21,8.86,2.92,12.93a159.9,159.9,0,0,1,2,17,167.85,167.85,0,0,1-19.79,90.14c-9.6,17.7-22.85,36.45-41.33,45.63-19.94,9.92-44,5.53-62.75-5-21.68-12.13-37.59-32.11-52.69-51.33-1.19-1.51-3.3.62-2.12,2.13Z" transform="translate(-51 -20)"/><ellipse class="cls-7" cx="347.52" cy="303" rx="21.53" ry="25.5"/><path class="cls-6" d="M260.45,317.57c-14.3,18.23-29.16,36.66-48.74,49.06s-45,17.9-66.18,8.5c-12.2-5.42-21.93-15.22-30.07-25.79-30.58-39.69-41.65-93.73-29.14-142.25l.38-.79Q174.87,258,259.85,314.88" transform="translate(-51 -20)"/><path d="M259.39,316.5c-13.46,17.15-27.38,34.63-45.6,47-17.71,12-40.78,18.9-61.85,12.44-20.43-6.26-35-24.9-45.52-42.51a168,168,0,0,1-23.56-91.6,159.91,159.91,0,0,1,1.71-18.67c.76-5,1.2-11.48,3.43-16.08l-2,.53q88.14,51.75,173.15,108.59c1.61,1.08,3.11-1.52,1.51-2.59Q175.65,256.77,87.46,205a1.52,1.52,0,0,0-2,.54c-1.86,3.83-2.34,8.71-3.08,12.86-.91,5.11-1.58,10.27-2,15.44a167.35,167.35,0,0,0,.62,33.49,171.38,171.38,0,0,0,19.32,61.35c9.91,18.3,23.8,37.83,43.06,47.07,19.54,9.37,42.53,6,61.37-3.42,23.68-11.9,40.79-33.28,56.82-53.7,1.18-1.51-.93-3.64-2.12-2.13Z" transform="translate(-51 -20)"/><ellipse class="cls-7" cx="160" cy="299" rx="21.5" ry="25.5"/><ellipse class="cls-8" cx="255.5" cy="364" rx="29" ry="21.5"/><path class="cls-2" d="M284.12,340l45.88.33A293,293,0,0,1,293.08,352l22.87-.13-30.84,4.31c12.29.69,24.79,1.62,36.73-.52" transform="translate(-51 -20)"/><path class="cls-9" d="M110.33,344.65l18-32.69,5.19,20.8a20.76,20.76,0,0,0,6.92-16.68,13,13,0,0,1,5,8.17c5.19,2.95,9.43,1.27,14.62,4.23" transform="translate(-51 -20)"/><path class="cls-9" d="M82,258.54l44-5.42-20.33,16.62a125.63,125.63,0,0,1,31-4.4" transform="translate(-51 -20)"/><path class="cls-9" d="M525.71,235.23a242.22,242.22,0,0,0-50.07,26.21l32.19.62-18.9,11.46,11.84,0a128.07,128.07,0,0,1-29.62,11.22l-2.25-4.14c-4.29-.45-8.83,1.46-10.42,4.38" transform="translate(-51 -20)"/><path class="cls-9" d="M505.31,327.87l-13.09-26.1-2.74,24.84L476.15,307.2c.09,4.74,0,9.93-3,13.55s-10.23,3.65-11.57-.89" transform="translate(-51 -20)"/><path d="M307.53,446.33a1.5,1.5,0,0,0,0-3,1.5,1.5,0,0,0,0,3Z" transform="translate(-51 -20)"/><path d="M307.53,447.16a1.5,1.5,0,0,0,0-3,1.5,1.5,0,0,0,0,3Z" transform="translate(-51 -20)"/><path d="M307.53,447.16a1.5,1.5,0,0,0,0-3,1.5,1.5,0,0,0,0,3Z" transform="translate(-51 -20)"/><path class="cls-2" d="M257.15,489.22" transform="translate(-51 -20)"/><path class="cls-1" d="M317.92,486a501.93,501.93,0,0,0-126.66,13.14c-11.78,2.77-26.28,5.2-34.25-3.74-3.93-4.41-5-10.51-5.81-16.31a251.35,251.35,0,0,1-1.7-47.57c.45-7.41,1.72-15.76,8.16-19.69,7.36-4.5,17-.68,25,2.59,39.6,16.19,86.6,13.94,124.4-5.94h1c37.8,19.88,84.8,22.13,124.4,5.94,8-3.27,17.47-7.2,24.83-2.7,6.43,3.94,7.84,12.39,8.29,19.8a251.35,251.35,0,0,1-1.7,47.57c-.76,5.8-1.88,11.9-5.81,16.31-8,8.94-22.47,6.51-34.25,3.74A501.93,501.93,0,0,0,297.14,486Z" transform="translate(-51 -20)"/><line class="cls-1" x1="372.01" y1="398.49" x2="372.83" y2="480.01"/><line class="cls-1" x1="342.63" y1="404.88" x2="343.45" y2="473.62"/><line class="cls-1" x1="310.8" y1="404.48" x2="313.25" y2="469.22"/><line class="cls-1" x1="201.44" y1="404.88" x2="201.44" y2="469.62"/><line class="cls-1" x1="169.61" y1="404.88" x2="170.43" y2="473.62"/><line class="cls-1" x1="141.05" y1="399.29" x2="140.23" y2="478.41"/><line class="cls-1" x1="397.31" y1="428.46" x2="282.24" y2="434.85"/><line class="cls-1" x1="116.56" y1="428.46" x2="231.64" y2="434.85"/><path class="cls-1" d="M307.94,510h22l2.45-91.11-25.3-10.39Q307.52,459.25,307.94,510Z" transform="translate(-51 -20)"/><path class="cls-1" d="M306.31,510h-22l-2.45-91.11,25.3-10.39Z" transform="translate(-51 -20)"/><polyline class="cls-1" points="406.29 390.9 397.31 429.26 397.31 434.06 402.21 478.81"/><polyline class="cls-1" points="106.77 481.21 115.89 435.5 116.2 430.64 107.22 392.28"/><ellipse class="cls-10" cx="294.38" cy="390.04" rx="7.77" ry="11.35" transform="translate(-245.2 378.94) rotate(-54)"/><ellipse class="cls-10" cx="319.62" cy="389.54" rx="12.46" ry="7.58" transform="matrix(0.81, -0.59, 0.59, 0.81, -218.93, 242.26)"/><path class="cls-1" d="M538.5,197.5a1457.34,1457.34,0,0,1-236,20,1457.39,1457.39,0,0,1-233-18,296.56,296.56,0,0,1,56-86,1737.83,1737.83,0,0,0,176,7,1736.77,1736.77,0,0,0,177-11,274.68,274.68,0,0,1,60,88Z" transform="translate(-51 -20)"/><text x="-51" y="-20"/><text class="cls-11" transform="translate(54.92 160.65)">C<tspan class="cls-12" x="33.93" y="0">anadian </tspan><tspan x="157.01" y="0">F</tspan><tspan class="cls-12" x="188.48" y="0">urious </tspan><tspan x="291.45" y="0">B</tspan><tspan class="cls-12" x="325.94" y="0">eaver</tspan></text></svg>